<mxfile host="app.diagrams.net" modified="2023-09-25T01:37:01.017Z" agent="Mozilla/5.0 (X11; Linux x86_64) AppleWebKit/537.36 (KHTML, like Gecko) Chrome/116.0.0.0 Safari/537.36" version="21.8.0" etag="Qg5-DQfRu5VPzB708Qsu" type="github">
  <diagram name="第 1 页" id="RBQ4ovAOmnGJHARPh_l_">
    <mxGraphModel>
      <root>
        <mxCell id="0" />
        <mxCell id="1" parent="0" />
      </root>
    </mxGraphModel>
  </diagram>
</mxfile>
